<?xml version="1.0" encoding="utf-8"?>
<!-- Generator: Adobe Illustrator 25.4.1, SVG Export Plug-In . SVG Version: 6.00 Build 0)  -->
<svg version="1.1" id="Layer_1" xmlns="http://www.w3.org/2000/svg" xmlns:xlink="http://www.w3.org/1999/xlink" x="0px" y="0px"
	 viewBox="0 0 60 52" style="enable-background:new 0 0 60 52;" xml:space="preserve">
<style type="text/css">
	.st0{fill:#8600E6;}
	.st1{fill:#FFD500;}
</style>
<g>
	<path class="st0" d="M30,52c3.3-3.2,7.5-7.7,11.3-13.9c3.4-5.5,5.5-10.6,6.8-14.7c0,0-12.2-11.7-22.4-16.5C15.3,2,6,0.5,0,0
		c2.6,0.8,19.7,6.1,27.6,23.6C33.4,36.4,31,48.2,30,52z"/>
	<path class="st1" d="M30,52c3.3-3.2,7.5-7.7,11.3-13.9c3.4-5.5,5.5-10.6,6.8-14.7c2.2-2,5.1-5.2,7.5-9.8C58.6,8.2,59.6,3.2,60,0
		c-0.6,6.2-2.5,16.8-8.9,28.2C44.2,40.7,35.2,48.2,30,52z"/>
</g>
</svg>
